<svg width="20" height="20" viewBox="0 0 20 20" fill="none" xmlns="http://www.w3.org/2000/svg">
<g opacity="0.5">
<path fill-rule="evenodd" clip-rule="evenodd" d="M14.7143 5.28603C15.0397 5.61147 15.0397 6.13911 14.7143 6.46454L6.46468 14.7141C6.13924 15.0396 5.6116 15.0396 5.28617 14.7141C4.96073 14.3887 4.96073 13.8611 5.28617 13.5356L13.5357 5.28603C13.8612 4.9606 14.3888 4.9606 14.7143 5.28603Z" fill="#223263"/>
<path fill-rule="evenodd" clip-rule="evenodd" d="M5.28574 5.28603C5.61118 4.9606 6.13882 4.9606 6.46426 5.28603L14.7138 13.5356C15.0393 13.861 15.0393 14.3887 14.7138 14.7141C14.3884 15.0396 13.8608 15.0396 13.5353 14.7141L5.28574 6.46454C4.96031 6.13911 4.96031 5.61147 5.28574 5.28603Z" fill="#223263"/>
</g>
</svg>
