<svg width="21" height="21" viewBox="0 0 21 21" fill="none" xmlns="http://www.w3.org/2000/svg">
<path fill-rule="evenodd" clip-rule="evenodd" d="M20.8102 17.1786C20.3268 15.8903 19.5855 14.7143 18.632 13.7228C17.6784 12.7313 16.5325 11.9451 15.2645 11.4124C15.9541 10.8457 16.5109 10.1344 16.8957 9.32878C17.2805 8.52315 17.4839 7.6428 17.4916 6.7499C17.4667 5.18505 16.8631 3.68497 15.7976 2.53943C14.7321 1.39389 13.2802 0.684164 11.7223 0.547397C11.2122 0.48412 10.6962 0.48412 10.1861 0.547397C8.62912 0.685332 7.1784 1.39557 6.11391 2.54099C5.04942 3.68642 4.44661 5.18583 4.42182 6.7499C4.42923 7.64285 4.63254 8.52327 5.01736 9.32893C5.40218 10.1346 5.95914 10.8459 6.64884 11.4124C5.38065 11.9449 4.2345 12.731 3.28067 13.7225C2.32685 14.714 1.58545 15.8901 1.10194 17.1786C0.965555 17.5554 0.925067 17.9602 0.984162 18.3565C1.04326 18.7528 1.20007 19.1281 1.44042 19.4486C1.68984 19.7778 2.01253 20.0442 2.38287 20.2267C2.7532 20.4092 3.16097 20.5027 3.57376 20.4999H18.3484C18.7608 20.5026 19.1682 20.4091 19.5381 20.2266C19.908 20.0441 20.2303 19.7777 20.4792 19.4486C20.7189 19.1278 20.8748 18.7521 20.9326 18.3557C20.9904 17.9593 20.9483 17.5546 20.8102 17.1786ZM7.03604 6.7499C7.0533 5.8021 7.42344 4.89487 8.074 4.20588C8.72457 3.51688 9.60869 3.09573 10.5532 3.02489C10.8224 2.99155 11.0947 2.99155 11.3639 3.02489C12.0743 3.13389 12.7385 3.44447 13.2779 3.91978C13.8173 4.39508 14.2092 5.01519 14.4072 5.70662C14.6052 6.39804 14.6009 7.13176 14.3949 7.82083C14.1889 8.5099 13.7898 9.12541 13.2449 9.5944C12.7 10.0634 12.0322 10.3662 11.3206 10.4669C10.609 10.5676 9.88345 10.462 9.22998 10.1626C8.57651 9.86326 8.02253 9.38266 7.63367 8.77779C7.24482 8.17291 7.03741 7.46914 7.03604 6.7499ZM3.57124 17.9999C4.16317 16.5237 5.18311 15.2587 6.49969 14.3677C7.81628 13.4767 9.36924 13.0006 10.9586 13.0006C12.5479 13.0006 14.1009 13.4767 15.4174 14.3677C16.734 15.2587 17.754 16.5237 18.3459 17.9999H3.57376H3.57124Z" fill="#22262A"/>
</svg>
